# xmcd
#
# Track frame offsets:
#	150
#	11573
#	24934
#	39503
#	53825
#	68096
#	86099
#	99082
#	110431
#	123689
#	135157
#	150881
#	170373
#	184330
#	201698
#	217051
#	228997
#	242247
#	252599
#	266630
#
# Disc length: 3713 seconds
#
# Revision: 0
# Processed by: cddbd v1.5.2PL0 Copyright (c) Steve Scherf et al.
# Submitted via: EasyCDDAExtractor 16.0.6.1
#
DISCID=140e7f14
DTITLE=Συλλογικός δίσκος - Τα τραγούδια του τζούκ μποξ 5
DYEAR=2010
DGENRE=Ποικίλη
TTITLE0=Μητσιάς Μανώλης - Ο τρελλός [Άκης Πάνου]
TTITLE1=Μπέλλου Σωτηρία - Χατζηκυριάκειο [Δημ. Γκόγκος Μπαγιαντέρας]
TTITLE2=Καζαντζίδης Στέλιος - Στο τραπέζι που τα πίνω [Α. Καλδάρας-Ε. Παπαγιαν
TTITLE2=νοπούλου]
TTITLE3=Πάνου Πόλυ - Στον Πειραιά συννέφιασε [Γιώργος Μητσάκης]
TTITLE4=Αγγελόπουλος Μανώλης - Η διπρόσωπη [Α. Ρεπάνης-Ε. Παπαγιαννοπούλου]
TTITLE5=Γλυκερία - Τα λερωμένα τ' άπλυτα [Βασίλης Τσιτσάνης]
TTITLE6=Γαβαλάς Πάνος-Κούρτη Ρία - Στο σταυροδρόμι[Χ.Κολοκοτρώνης-Β.Ατραΐδης/Γ
TTITLE6=Βασιλόπουλος]
TTITLE7=Νικολαΐδης Απόστολος - Κάτω στα Λεμονάδικα [Βαγγέλης Παπάζογλου]
TTITLE8=Αδαμαντίδης Θέμης - Αγάπη μου επικίνδυνη [Α. Ρεπάνης-Δ. Γκούτης]
TTITLE9=Ζαγοραίος Σπύρος - Ο διαβολάκος [Π. Μιχαλόπουλος-Δ. Σκαρπέλης]
TTITLE10=Μενιδιάτης Μιχάλης - Απ' τις παρανομίες σου [Γιάννης Παπαϊωάννου]
TTITLE11=Τσαουσάκης Πρόδρομος - Άσε με, άσε με [Γ. Παπαϊωάννου-Κ. Μάνεσης]
TTITLE12=Μοσχολιού Βίκυ - Αλήτη [Γ. Ζαμπέτας-Α. Καγιάντας]
TTITLE13=Πουλόπουλος Γιάννης - Όποια και νά 'σαι [Α. Καλδάρας-Γ. Σαμολαδάς]
TTITLE14=Λίντα Μαίρη - Μοιάζεις κι εσύ σαν θάλασσα [Μανώλης Χιώτης]
TTITLE15=Ψαριανός Δημήτρης - Μιά παλιά ιστορία [Σ. Καζαντζίδης-Κ. Βίρβος]
TTITLE16=Ανδρεάτος Γεράσιμος - Χτες το βράδυ στην ταβέρνα [Α. Ρεπάνης-Π. Καμηλ
TTITLE16=ιέρης]
TTITLE17=Κύπριος Στράτος-Ζανέτ Λίτσα - Ο ουρανός αν γκρεμιστεί [Β. Σούκας-Σ. Τ
TTITLE17=σιλιβερδής]
TTITLE18=Μπίνης Τάκης - Ντουμάνιασε ο ουρανός [Τάκης Μπίνης]
TTITLE19=Χρηστάκης - Παίζουν τα μπαγλαμαδάκια [Γ. Ροβερτάκης-Γ. Γαβαλάς]
EXTD=
EXTT0=
EXTT1=
EXTT2=
EXTT3=
EXTT4=
EXTT5=
EXTT6=
EXTT7=
EXTT8=
EXTT9=
EXTT10=
EXTT11=
EXTT12=
EXTT13=
EXTT14=
EXTT15=
EXTT16=
EXTT17=
EXTT18=
EXTT19=
PLAYORDER=
